<svg width="24" height="24" viewBox="0 0 24 24" fill="none" xmlns="http://www.w3.org/2000/svg">
<g clip-path="url(#clip0_918_3400)">
<path fill-rule="evenodd" clip-rule="evenodd" d="M16.0422 7.98516C16.9825 7.20066 18.0316 6.90218 19.0377 6.97764C20.1109 7.05813 21.1039 7.56118 21.8458 8.29187C22.5874 9.02259 23.0969 9.99998 23.1785 11.0548C23.2608 12.1192 22.9044 13.2341 21.9648 14.2125C21.8789 14.3026 21.7911 14.3915 21.7013 14.4793C17.4393 18.6777 11.7779 18.6888 11.72 18.6888H11.7197C11.6908 18.6888 6.01146 18.6886 1.73844 14.4789L1.73752 14.4778C1.6493 14.3905 1.56243 14.3024 1.47686 14.214L1.47618 14.2131C0.536088 13.2356 0.179346 12.121 0.26139 11.0566C0.342686 10.0019 0.851894 9.02441 1.59339 8.29343C2.33482 7.56248 3.32785 7.05903 4.40124 6.9782C5.40726 6.90244 6.45653 7.20055 7.3973 7.98467C7.49847 6.77527 8.0255 5.834 8.79053 5.1869C9.60647 4.49673 10.6698 4.16016 11.7198 4.16016C12.7698 4.16016 13.8331 4.49673 14.649 5.1869C15.4141 5.83409 15.9411 6.77553 16.0422 7.98516ZM11.9149 18.2632L11.9147 18.2578H11.915L11.9149 18.2632ZM11.5247 18.2632L11.5245 18.2578H11.5249L11.5247 18.2632ZM14.9218 12.4334C14.8051 12.4334 14.7648 12.5994 14.8391 12.6872C14.9707 12.8429 15.05 13.0431 15.05 13.2616C15.05 13.7574 14.6421 14.1593 14.139 14.1593C13.6357 14.1593 13.2277 13.7574 13.2277 13.2616C13.2277 13.2351 13.1926 13.2219 13.1767 13.2434C13.033 13.4379 12.936 13.6562 12.8961 13.8854C12.8737 14.0144 12.7672 14.1215 12.6334 14.1215H12.5595C12.3849 14.1215 12.2408 13.9819 12.2666 13.8129C12.4432 12.6546 13.6019 11.8146 14.9218 11.8146C16.2415 11.8146 17.4002 12.6546 17.5769 13.8129C17.6025 13.9819 17.4585 14.1215 17.284 14.1215C17.1092 14.1215 16.971 13.9812 16.9329 13.8144C16.7603 13.0552 15.9595 12.4334 14.9218 12.4334ZM6.83058 13.2616C6.83058 13.2266 6.78456 13.2079 6.76289 13.2357C6.60927 13.4332 6.5046 13.6568 6.46029 13.8925C6.43414 14.0317 6.31917 14.1475 6.17448 14.1475H6.12026C5.94561 14.1475 5.80155 14.008 5.82729 13.839C6.0039 12.6802 7.16271 11.8407 8.48247 11.8407C9.8022 11.8407 10.961 12.6802 11.1376 13.839C11.1634 14.008 11.0193 14.1475 10.8447 14.1475C10.67 14.1475 10.5317 14.0074 10.4938 13.8405C10.3211 13.0809 9.52039 12.4596 8.48247 12.4596C8.38811 12.4596 8.35359 12.5901 8.41674 12.6586C8.56348 12.818 8.6529 13.0295 8.6529 13.2616C8.6529 13.7574 8.24496 14.1593 7.74174 14.1593C7.23851 14.1593 6.83058 13.7574 6.83058 13.2616ZM12.7334 15.4265C12.8568 15.3055 13.0476 15.2468 13.2008 15.3286C13.3541 15.4107 13.4122 15.6008 13.3018 15.7333C12.9421 16.1642 12.3597 16.4375 11.7173 16.4375C11.0753 16.4375 10.4916 16.1672 10.1315 15.7329C10.0214 15.6002 10.0803 15.41 10.2338 15.3286C10.3874 15.2472 10.5778 15.3068 10.7011 15.4278C10.9385 15.6611 11.2988 15.8187 11.7173 15.8187C12.1348 15.8187 12.4954 15.6594 12.7334 15.4265Z" fill="#676767"/>
</g>
<defs>
<clipPath id="clip0_918_3400">
<rect width="23.25" height="23.25" fill="white" transform="translate(0.25)"/>
</clipPath>
</defs>
</svg>
