<svg width="24" height="24" viewBox="0 0 24 24" fill="none" xmlns="http://www.w3.org/2000/svg">
<path d="M8.79121 3.25663C8.79121 3.25663 5.83047 3.46007 3.89418 5.01491C3.88509 5.01854 3.8742 5.02399 3.86511 5.02944C3.52908 5.34005 3.2766 5.8214 2.96418 6.51163C2.65175 7.20186 2.32117 8.09009 2.01964 9.08366C1.41841 11.0726 0.929801 13.5139 0.929801 15.8116C0.927985 15.8934 0.947965 15.9733 0.987926 16.0441C1.66726 17.2375 2.91695 17.9586 4.08308 18.4127C5.24922 18.8668 6.32634 19.0485 6.87308 19.0666C7.02748 19.0721 7.17461 19.0012 7.26543 18.8777L8.39886 17.3083C9.31252 17.5245 10.3842 17.6716 11.6248 17.6716C12.8654 17.6716 13.9371 17.5245 14.8507 17.3083L15.9842 18.8777C16.075 19.0012 16.2221 19.0721 16.3765 19.0666C16.9233 19.0485 18.0004 18.8668 19.1665 18.4127C20.3327 17.9586 21.5823 17.2375 22.2617 16.0441C22.3016 15.9733 22.3216 15.8934 22.3198 15.8116C22.3198 13.5139 21.8312 11.0726 21.23 9.08366C20.9284 8.09009 20.5978 7.20186 20.2854 6.51163C19.973 5.8214 19.7205 5.34005 19.3845 5.02944C19.3754 5.02399 19.3645 5.01854 19.3554 5.01491C17.4191 3.46007 14.4584 3.25663 14.4584 3.25663C14.4239 3.253 14.3912 3.253 14.3567 3.25663C14.195 3.27843 14.0588 3.38378 13.9934 3.53272C13.9934 3.53272 13.8354 3.87966 13.7318 4.37554C12.8254 4.23022 12.0626 4.18663 11.6248 4.18663C11.187 4.18663 10.4242 4.23022 9.51777 4.37554C9.41423 3.87966 9.25621 3.53272 9.25621 3.53272C9.17628 3.35108 8.98919 3.24028 8.79121 3.25663ZM8.50058 4.25929C8.53509 4.35374 8.55871 4.44274 8.58777 4.54991C7.5397 4.79331 6.39173 5.1911 5.31824 5.85772C5.14931 5.92856 5.03851 6.09204 5.03306 6.2755C5.02943 6.45714 5.13297 6.62606 5.29644 6.70599C5.46173 6.78409 5.65791 6.76048 5.79777 6.64241C7.95203 5.30735 10.693 5.11663 11.6248 5.11663C12.5566 5.11663 15.2976 5.30735 17.4518 6.64241C17.5917 6.76048 17.7879 6.78409 17.9532 6.70599C18.1166 6.62606 18.2202 6.45714 18.2165 6.2755C18.2111 6.09204 18.1003 5.92856 17.9314 5.85772C16.8579 5.1911 15.7099 4.79331 14.6618 4.54991C14.6909 4.44274 14.7145 4.35374 14.749 4.25929C15.2794 4.32468 17.341 4.60259 18.7451 5.71241C18.8359 5.79597 19.152 6.26097 19.4426 6.90397C19.7332 7.54698 20.0384 8.38435 20.329 9.34522C20.8957 11.2198 21.3535 13.532 21.3753 15.6518C20.8467 16.5073 19.8549 17.1431 18.8323 17.5408C17.9023 17.9023 17.0341 18.064 16.58 18.1076L15.7953 17.0468C16.1949 16.9178 16.5545 16.778 16.8706 16.6399C18.044 16.1241 18.6725 15.5791 18.6725 15.5791C18.865 15.4066 18.8813 15.1105 18.7088 14.918C18.5362 14.7254 18.2402 14.7091 18.0476 14.8816C18.0476 14.8816 17.5608 15.3266 16.4928 15.7971C16.1004 15.9697 15.6245 16.1404 15.0832 16.2912C14.9579 16.2766 14.8326 16.313 14.7345 16.3929C13.8681 16.6036 12.8382 16.7416 11.6248 16.7416C10.4024 16.7416 9.37064 16.5909 8.50058 16.3783C8.4025 16.313 8.28261 16.2857 8.16636 16.3057C7.62326 16.1549 7.15099 15.9697 6.75683 15.7971C5.68879 15.3266 5.20199 14.8816 5.20199 14.8816C5.09664 14.7835 4.95132 14.7418 4.80964 14.7654C4.62982 14.7926 4.48088 14.9216 4.43183 15.0978C4.38097 15.2722 4.4391 15.4611 4.57714 15.5791C4.57714 15.5791 5.20562 16.1241 6.37902 16.6399C6.69507 16.778 7.05472 16.9178 7.45433 17.0468L6.66964 18.1076C6.21554 18.064 5.3473 17.9023 4.4173 17.5408C3.39466 17.1431 2.40291 16.5073 1.87433 15.6518C1.89613 13.532 2.35386 11.2198 2.92058 9.34522C3.21121 8.38435 3.51636 7.54698 3.80699 6.90397C4.09761 6.26097 4.41367 5.79597 4.50449 5.71241C5.90857 4.60259 7.97019 4.32468 8.50058 4.25929ZM8.6023 9.76663C7.41619 9.76663 6.5098 10.8438 6.5098 12.0916C6.5098 13.3395 7.41619 14.4166 8.6023 14.4166C9.78841 14.4166 10.6948 13.3395 10.6948 12.0916C10.6948 10.8438 9.78841 9.76663 8.6023 9.76663ZM14.6473 9.76663C13.4612 9.76663 12.5548 10.8438 12.5548 12.0916C12.5548 13.3395 13.4612 14.4166 14.6473 14.4166C15.8334 14.4166 16.7398 13.3395 16.7398 12.0916C16.7398 10.8438 15.8334 9.76663 14.6473 9.76663ZM8.6023 10.6966C9.21443 10.6966 9.7648 11.2851 9.7648 12.0916C9.7648 12.8981 9.21443 13.4866 8.6023 13.4866C7.99017 13.4866 7.4398 12.8981 7.4398 12.0916C7.4398 11.2851 7.99017 10.6966 8.6023 10.6966ZM14.6473 10.6966C15.2594 10.6966 15.8098 11.2851 15.8098 12.0916C15.8098 12.8981 15.2594 13.4866 14.6473 13.4866C14.0352 13.4866 13.4848 12.8981 13.4848 12.0916C13.4848 11.2851 14.0352 10.6966 14.6473 10.6966Z" fill="#676767"/>
</svg>
