<svg width="24" height="24" viewBox="0 0 24 24" fill="none" xmlns="http://www.w3.org/2000/svg">
<path d="M19.8923 3.56399L8.06299 1.47512C7.68351 1.40834 7.29304 1.49502 6.97745 1.71608C6.66186 1.93715 6.44699 2.27451 6.38009 2.65397L3.67819 18.0026C3.64514 18.1906 3.64947 18.3833 3.69093 18.5697C3.73238 18.756 3.81016 18.9324 3.9198 19.0887C4.02945 19.245 4.16882 19.3781 4.32994 19.4805C4.49107 19.5829 4.6708 19.6526 4.85885 19.6855L16.6882 21.7744C16.8763 21.8075 17.0691 21.8033 17.2556 21.7619C17.442 21.7205 17.6185 21.6428 17.7749 21.5331C17.9313 21.4235 18.0645 21.284 18.167 21.1229C18.2694 20.9617 18.3391 20.7819 18.372 20.5937L21.0739 5.24507C21.1401 4.86547 21.0528 4.47511 20.8312 4.15986C20.6096 3.84461 20.2719 3.63027 19.8923 3.56399ZM16.9389 20.343L5.10861 18.2542L7.81051 2.90554L19.6399 4.99441L16.9389 20.343ZM8.86312 5.30501C8.89677 5.11536 9.00436 4.94682 9.16224 4.83647C9.32011 4.72611 9.51534 4.68296 9.70502 4.7165L17.2431 6.04702C17.4223 6.0784 17.5831 6.17583 17.6939 6.32007C17.8047 6.4643 17.8574 6.64485 17.8415 6.82604C17.8257 7.00722 17.7424 7.17587 17.6083 7.29866C17.4741 7.42146 17.2987 7.48946 17.1169 7.48924C17.0743 7.48917 17.0317 7.48552 16.9897 7.47834L9.45163 6.14692C9.26198 6.11326 9.09344 6.00567 8.98309 5.8478C8.87273 5.68993 8.82958 5.49469 8.86312 5.30501ZM8.35997 8.16767C8.37653 8.07368 8.41145 7.98387 8.46272 7.90338C8.514 7.82288 8.58063 7.75328 8.65882 7.69854C8.737 7.64381 8.8252 7.60501 8.91838 7.58437C9.01156 7.56373 9.10789 7.56165 9.20188 7.57825L16.74 8.90967C16.9204 8.93985 17.0828 9.03696 17.1947 9.18162C17.3067 9.32628 17.3599 9.50784 17.3439 9.69005C17.3278 9.87226 17.2436 10.0417 17.1081 10.1646C16.9726 10.2874 16.7957 10.3546 16.6128 10.3528C16.5699 10.3529 16.527 10.3489 16.4848 10.341L8.94667 9.01048C8.75716 8.97642 8.58892 8.86851 8.47892 8.71048C8.36891 8.55246 8.32613 8.35722 8.35997 8.16767ZM7.85592 11.0294C7.89021 10.8403 7.99806 10.6724 8.15586 10.5626C8.31366 10.4528 8.50854 10.41 8.69782 10.4436L12.4651 11.1057C12.6441 11.1371 12.8049 11.2344 12.9157 11.3786C13.0265 11.5227 13.0793 11.7032 13.0635 11.8843C13.0478 12.0654 12.9647 12.234 12.8307 12.3569C12.6967 12.4798 12.5215 12.5479 12.3397 12.5479C12.2971 12.5479 12.2546 12.5443 12.2126 12.537L8.44353 11.8713C8.25404 11.8375 8.08573 11.7298 7.97556 11.5719C7.86539 11.4141 7.82236 11.219 7.85592 11.0294Z" fill="#676767"/>
</svg>
