<svg width="21" height="21" viewBox="0 0 21 21" fill="none" xmlns="http://www.w3.org/2000/svg">
<path d="M17.8144 0.859375H2.93438C1.65097 0.859375 0.609375 1.90097 0.609375 3.18438V18.0644C0.609375 19.3478 1.65097 20.3894 2.93438 20.3894H17.8144C19.0978 20.3894 20.1394 19.3478 20.1394 18.0644V3.18438C20.1394 1.90097 19.0978 0.859375 17.8144 0.859375ZM6.65438 8.29938V17.1344H3.86438V8.29938H6.65438ZM3.86438 5.72793C3.86438 5.07693 4.42237 4.57938 5.25938 4.57938C6.09637 4.57938 6.62183 5.07693 6.65438 5.72793C6.65438 6.37893 6.13357 6.90438 5.25938 6.90438C4.42237 6.90438 3.86438 6.37893 3.86438 5.72793ZM16.8844 17.1344H14.0944C14.0944 17.1344 14.0944 12.8285 14.0944 12.4844C14.0944 11.5544 13.6294 10.6244 12.4669 10.6058H12.4297C11.3044 10.6058 10.8394 11.5637 10.8394 12.4844C10.8394 12.9075 10.8394 17.1344 10.8394 17.1344H8.04938V8.29938H10.8394V9.48977C10.8394 9.48977 11.7368 8.29938 13.541 8.29938C15.3871 8.29938 16.8844 9.56882 16.8844 12.1403V17.1344Z" fill="#676767"/>
</svg>
