<svg width="22" height="22" viewBox="0 0 22 22" fill="none" xmlns="http://www.w3.org/2000/svg">
<path d="M7.7725 21.7784C8.10312 21.6361 8.33469 21.3074 8.33469 20.9247V18.4137C8.33469 18.3221 8.34213 18.2268 8.35375 18.13C8.34724 18.1319 8.3412 18.1333 8.33469 18.1347C8.33469 18.1347 6.93969 18.1347 6.66069 18.1347C5.96319 18.1347 5.35869 17.8557 5.07969 17.2977C4.75419 16.6932 4.61469 15.6702 3.77769 15.1122C3.63819 15.0192 3.73119 14.8797 4.01019 14.8797C4.28919 14.9262 4.89369 15.2982 5.26569 15.8097C5.68419 16.3212 6.10269 16.7397 6.84669 16.7397C8.00314 16.7397 8.62299 16.6816 8.99592 16.4816C9.43023 15.8357 10.0315 15.3447 10.6597 15.3447V15.3331C8.02407 15.2484 6.3403 14.3724 5.55631 13.0197C3.85209 13.0392 2.36827 13.208 1.52151 13.3484C1.49454 13.1964 1.47129 13.0434 1.45129 12.8895C2.2869 12.7518 3.70329 12.5886 5.33172 12.5575C5.27964 12.4291 5.23453 12.2975 5.1964 12.1627C3.56379 12.0799 2.15484 12.1446 1.38945 12.2078C1.38015 12.0534 1.36759 11.8995 1.36573 11.7433C2.13252 11.6805 3.50334 11.6177 5.0941 11.6916C5.05737 11.4591 5.03365 11.2215 5.03365 10.9742C5.03365 10.1837 5.31265 9.34665 5.82415 8.64915C5.59165 7.85865 5.26615 6.18465 5.91715 5.58015C7.17265 5.58015 8.05615 6.18465 8.47465 6.55665C9.26469 6.23069 10.1482 6.04469 11.1247 6.04469C12.1012 6.04469 12.9847 6.23069 13.7287 6.55619C14.1472 6.18419 15.0307 5.57969 16.2862 5.57969C16.9837 6.23069 16.6117 7.90469 16.3792 8.64869C16.8907 9.34619 17.1697 10.1367 17.1232 10.9737C17.1232 11.1987 17.1023 11.4159 17.072 11.6289C18.6991 11.5489 20.1071 11.6131 20.8869 11.6763C20.886 11.833 20.8716 11.986 20.8632 12.1408C20.0862 12.0767 18.6428 12.0106 16.9762 12.0995C16.9349 12.2557 16.8846 12.4077 16.8251 12.5552C18.474 12.5765 19.9243 12.736 20.7999 12.8755C20.7799 13.0299 20.7567 13.1829 20.7297 13.3345C19.8406 13.1922 18.3252 13.0257 16.601 13.0174C15.8268 14.3556 14.1737 15.2284 11.5897 15.3303V15.3447C12.7987 15.3447 13.9147 17.1582 13.9147 18.4137V20.9247C13.9147 21.3074 14.1463 21.6361 14.4769 21.7784C18.7367 20.3685 21.8197 16.3509 21.8197 11.6247C21.8197 5.72756 17.0223 0.929688 11.1247 0.929688C5.22709 0.929688 0.429688 5.72756 0.429688 11.6247C0.429688 16.3509 3.51264 20.3685 7.7725 21.7784Z" fill="#676767"/>
</svg>
